<svg width="140" height="140" viewBox="0 0 140 140" xmlns="http://www.w3.org/2000/svg">
  <rect width="140" height="140" rx="20" fill="#161b22"/>

  <g stroke="#3fb950" stroke-width="2" fill="none" opacity="0.55" stroke-linecap="round">
    <path d="M 60 14 q 5 7 0 14 q -5 7 0 14"/>
    <path d="M 80 10 q 5 7 0 14 q -5 7 0 14"/>
  </g>

  <g stroke="#58a6ff" stroke-width="4" fill="none" stroke-linejoin="round">
    <path d="M 58 50 L 58 70 L 24 116 Q 24 124 32 124 L 108 124 Q 116 124 116 116 L 82 70 L 82 50 Z"/>
    <line x1="52" y1="50" x2="88" y2="50"/>
  </g>

  <path d="M 38 100 L 30 116 Q 30 122 36 122 L 104 122 Q 110 122 110 116 L 102 100 Z" fill="#58a6ff" opacity="0.25"/>
  <path d="M 38 100 Q 50 96 70 100 Q 90 104 102 100" stroke="#58a6ff" stroke-width="2" fill="none" opacity="0.7"/>

  <g stroke="#58a6ff" stroke-width="1.5" opacity="0.7">
    <line x1="44" y1="86" x2="70" y2="76"/>
    <line x1="96" y1="86" x2="70" y2="76"/>
    <line x1="44" y1="86" x2="96" y2="86"/>
    <line x1="70" y1="76" x2="70" y2="110"/>
    <line x1="44" y1="86" x2="70" y2="110"/>
    <line x1="96" y1="86" x2="70" y2="110"/>
  </g>
  <g>
    <circle cx="70" cy="76" r="5" fill="#e6edf3"/>
    <circle cx="44" cy="86" r="4" fill="#58a6ff"/>
    <circle cx="96" cy="86" r="4" fill="#58a6ff"/>
    <circle cx="70" cy="110" r="4" fill="#58a6ff"/>
  </g>
</svg>
